<?xml version="1.0" encoding="UTF-8"?>
<!DOCTYPE svg PUBLIC "-//W3C//DTD SVG 1.1//EN" "http://www.w3.org/Graphics/SVG/1.1/DTD/svg11.dtd">
<svg xmlns="http://www.w3.org/2000/svg" version="1.1" width="400px" height="60px" style="shape-rendering:geometricPrecision; text-rendering:geometricPrecision; image-rendering:optimizeQuality; fill-rule:evenodd; clip-rule:evenodd" xmlns:xlink="http://www.w3.org/1999/xlink">
<g><path style="opacity:1" fill="#fdfdfd" d="M -0.5,-0.5 C 132.833,-0.5 266.167,-0.5 399.5,-0.5C 399.5,19.5 399.5,39.5 399.5,59.5C 266.167,59.5 132.833,59.5 -0.5,59.5C -0.5,39.5 -0.5,19.5 -0.5,-0.5 Z"/></g>
<g><path style="opacity:1" fill="#2c2c2c" d="M 145.5,3.5 C 146.831,11.8066 147.498,20.4733 147.5,29.5C 147.167,38.1667 146.833,46.8333 146.5,55.5C 145.5,38.1795 145.167,20.8461 145.5,3.5 Z"/></g>
<g><path style="opacity:1" fill="#676767" d="M 197.5,14.5 C 186.833,14.5 176.167,14.5 165.5,14.5C 165.5,24.8333 165.5,35.1667 165.5,45.5C 164.506,35.0131 164.172,24.3464 164.5,13.5C 175.679,13.1721 186.679,13.5054 197.5,14.5 Z"/></g>
<g><path style="opacity:1" fill="#6b6b6b" d="M 349.5,19.5 C 349.5,17.8333 349.5,16.1667 349.5,14.5C 338.833,14.5 328.167,14.5 317.5,14.5C 317.5,24.8333 317.5,35.1667 317.5,45.5C 316.506,35.0131 316.172,24.3464 316.5,13.5C 327.833,13.5 339.167,13.5 350.5,13.5C 350.795,15.7354 350.461,17.7354 349.5,19.5 Z"/></g>
<g><path style="opacity:1" fill="#252525" d="M 14.5,14.5 C 22.1667,14.5 29.8333,14.5 37.5,14.5C 37.6663,21.8409 37.4997,29.1742 37,36.5C 35.8333,41.6667 32.6667,44.8333 27.5,46C 21.8333,46.6667 16.1667,46.6667 10.5,46C 9.59391,44.3005 9.26057,42.4672 9.5,40.5C 26.4426,44.2241 33.1093,37.5574 29.5,20.5C 24.6946,19.5128 19.6946,19.1795 14.5,19.5C 14.5,17.8333 14.5,16.1667 14.5,14.5 Z"/></g>
<g><path style="opacity:1" fill="#282828" d="M 57.5,13.5 C 65.9734,12.5982 73.9734,14.0982 81.5,18C 89.7281,26.6322 89.3948,34.9655 80.5,43C 72.4899,46.3364 64.1566,47.3364 55.5,46C 41.1249,39.5324 38.7915,30.1991 48.5,18C 51.4375,16.1991 54.4375,14.6991 57.5,13.5 Z"/></g>
<g><path style="opacity:1" fill="#242424" d="M 93.5,14.5 C 104.603,14.0455 115.603,14.5455 126.5,16C 130.957,21.1348 130.29,25.4681 124.5,29C 128.171,30.8279 130.504,33.6612 131.5,37.5C 131.429,42.072 129.096,44.572 124.5,45C 114.172,45.4998 103.839,45.6665 93.5,45.5C 93.5,35.1667 93.5,24.8333 93.5,14.5 Z"/></g>
<g><path style="opacity:1" fill="#262626" d="M 269.5,13.5 C 279.566,13.1048 289.566,13.6048 299.5,15C 310.624,19.7599 313.458,27.5932 308,38.5C 304.748,42.366 300.581,44.5327 295.5,45C 286.84,45.4998 278.173,45.6664 269.5,45.5C 269.5,34.8333 269.5,24.1667 269.5,13.5 Z"/></g>
<g><path style="opacity:1" fill="#252525" d="M 383.5,14.5 C 391.739,15.2461 394.572,19.5795 392,27.5C 390.442,29.3589 388.609,30.8589 386.5,32C 387.931,32.4652 389.097,33.2986 390,34.5C 390.904,38.1108 392.071,41.6108 393.5,45C 390.518,45.498 387.518,45.6646 384.5,45.5C 384.495,41.9668 383.495,38.8002 381.5,36C 375.843,35.5006 370.176,35.3339 364.5,35.5C 364.5,38.8333 364.5,42.1667 364.5,45.5C 361.833,45.5 359.167,45.5 356.5,45.5C 356.5,35.1667 356.5,24.8333 356.5,14.5C 365.5,14.5 374.5,14.5 383.5,14.5 Z"/></g>
<g><path style="opacity:1" fill="#202020" d="M 197.5,14.5 C 197.5,16.1667 197.5,17.8333 197.5,19.5C 189.167,19.5 180.833,19.5 172.5,19.5C 172.5,22.1667 172.5,24.8333 172.5,27.5C 180.167,27.5 187.833,27.5 195.5,27.5C 195.5,29.1667 195.5,30.8333 195.5,32.5C 187.833,32.5 180.167,32.5 172.5,32.5C 172.5,36.8333 172.5,41.1667 172.5,45.5C 170.167,45.5 167.833,45.5 165.5,45.5C 165.5,35.1667 165.5,24.8333 165.5,14.5C 176.167,14.5 186.833,14.5 197.5,14.5 Z"/></g>
<g><path style="opacity:1" fill="#777777" d="M 210.5,45.5 C 210.5,35.1667 210.5,24.8333 210.5,14.5C 208.167,14.5 205.833,14.5 203.5,14.5C 203.5,24.8333 203.5,35.1667 203.5,45.5C 202.506,35.0131 202.172,24.3464 202.5,13.5C 205.5,13.5 208.5,13.5 211.5,13.5C 211.828,24.3464 211.494,35.0131 210.5,45.5 Z"/></g>
<g><path style="opacity:1" fill="#202020" d="M 210.5,45.5 C 208.167,45.5 205.833,45.5 203.5,45.5C 203.5,35.1667 203.5,24.8333 203.5,14.5C 205.833,14.5 208.167,14.5 210.5,14.5C 210.5,24.8333 210.5,35.1667 210.5,45.5 Z"/></g>
<g><path style="opacity:1" fill="#727272" d="M 228.5,14.5 C 225.833,14.5 223.167,14.5 220.5,14.5C 220.5,24.8333 220.5,35.1667 220.5,45.5C 219.506,35.0131 219.172,24.3464 219.5,13.5C 222.713,13.19 225.713,13.5233 228.5,14.5 Z"/></g>
<g><path style="opacity:1" fill="#222222" d="M 228.5,14.5 C 236.492,21.1595 244.159,28.1595 251.5,35.5C 251.56,36.0431 251.893,36.3764 252.5,36.5C 253.497,29.1968 253.831,21.8635 253.5,14.5C 255.833,14.5 258.167,14.5 260.5,14.5C 260.5,24.8333 260.5,35.1667 260.5,45.5C 257.482,45.6646 254.482,45.498 251.5,45C 243.683,38.0167 236.016,30.85 228.5,23.5C 227.503,30.8032 227.169,38.1365 227.5,45.5C 225.167,45.5 222.833,45.5 220.5,45.5C 220.5,35.1667 220.5,24.8333 220.5,14.5C 223.167,14.5 225.833,14.5 228.5,14.5 Z"/></g>
<g><path style="opacity:1" fill="#878787" d="M 260.5,14.5 C 258.167,14.5 255.833,14.5 253.5,14.5C 253.831,21.8635 253.497,29.1968 252.5,36.5C 251.893,36.3764 251.56,36.0431 251.5,35.5C 252.492,28.3524 252.825,21.0191 252.5,13.5C 255.385,13.1936 258.052,13.5269 260.5,14.5 Z"/></g>
<g><path style="opacity:1" fill="#222222" d="M 349.5,19.5 C 341.167,19.5 332.833,19.5 324.5,19.5C 324.198,22.0593 324.532,24.3926 325.5,26.5C 332.833,26.5 340.167,26.5 347.5,26.5C 347.5,28.1667 347.5,29.8333 347.5,31.5C 339.833,31.5 332.167,31.5 324.5,31.5C 324.194,34.3854 324.527,37.0521 325.5,39.5C 333.833,39.5 342.167,39.5 350.5,39.5C 350.5,41.5 350.5,43.5 350.5,45.5C 339.5,45.5 328.5,45.5 317.5,45.5C 317.5,35.1667 317.5,24.8333 317.5,14.5C 328.167,14.5 338.833,14.5 349.5,14.5C 349.5,16.1667 349.5,17.8333 349.5,19.5 Z"/></g>
<g><path style="opacity:1" fill="#a5a5a5" d="M 383.5,14.5 C 374.5,14.5 365.5,14.5 356.5,14.5C 356.5,24.8333 356.5,35.1667 356.5,45.5C 355.506,35.0131 355.172,24.3464 355.5,13.5C 365.015,13.1731 374.348,13.5064 383.5,14.5 Z"/></g>
<g><path style="opacity:1" fill="#5e5e5e" d="M 14.5,14.5 C 14.5,16.1667 14.5,17.8333 14.5,19.5C 19.6946,19.1795 24.6946,19.5128 29.5,20.5C 24.1667,20.5 18.8333,20.5 13.5,20.5C 13.2053,18.2646 13.5386,16.2646 14.5,14.5 Z"/></g>
<g><path style="opacity:1" fill="#bfbfbf" d="M 197.5,19.5 C 189.684,20.4924 181.684,20.8257 173.5,20.5C 173.5,22.5 173.5,24.5 173.5,26.5C 181.019,26.175 188.352,26.5084 195.5,27.5C 187.833,27.5 180.167,27.5 172.5,27.5C 172.5,24.8333 172.5,22.1667 172.5,19.5C 180.833,19.5 189.167,19.5 197.5,19.5 Z"/></g>
<g><path style="opacity:1" fill="#bcbcbc" d="M 349.5,19.5 C 341.684,20.4924 333.684,20.8257 325.5,20.5C 325.5,22.5 325.5,24.5 325.5,26.5C 324.532,24.3926 324.198,22.0593 324.5,19.5C 332.833,19.5 341.167,19.5 349.5,19.5 Z"/></g>
<g><path style="opacity:1" fill="#f9f9f9" d="M 58.5,19.5 C 66.1869,17.996 72.6869,19.996 78,25.5C 79.9868,36.5173 75.3201,41.5173 64,40.5C 52.4973,39.819 48.8306,34.1524 53,23.5C 54.8121,22.0229 56.6455,20.6896 58.5,19.5 Z"/></g>
<g><path style="opacity:1" fill="#f2f2f2" d="M 101.5,20.5 C 107.842,20.3338 114.175,20.5005 120.5,21C 123.228,23.4348 122.894,25.4348 119.5,27C 113.509,27.4995 107.509,27.6662 101.5,27.5C 101.5,25.1667 101.5,22.8333 101.5,20.5 Z"/></g>
<g><path style="opacity:1" fill="#f8f8f8" d="M 277.5,19.5 C 283.176,19.3339 288.843,19.5006 294.5,20C 302.701,23.3734 304.535,28.8734 300,36.5C 298.581,37.4601 297.081,38.2935 295.5,39C 289.509,39.4995 283.509,39.6662 277.5,39.5C 277.5,32.8333 277.5,26.1667 277.5,19.5 Z"/></g>
<g><path style="opacity:1" fill="#f3f3f3" d="M 364.5,19.5 C 370.176,19.3339 375.843,19.5006 381.5,20C 384.379,21.6658 385.212,24.1658 384,27.5C 382.933,28.1905 381.766,28.6905 380.5,29C 375.177,29.4994 369.844,29.666 364.5,29.5C 364.5,26.1667 364.5,22.8333 364.5,19.5 Z"/></g>
<g><path style="opacity:1" fill="#979797" d="M 347.5,26.5 C 348.461,28.2646 348.795,30.2646 348.5,32.5C 340.833,32.5 333.167,32.5 325.5,32.5C 325.5,34.8333 325.5,37.1667 325.5,39.5C 324.527,37.0521 324.194,34.3854 324.5,31.5C 332.167,31.5 339.833,31.5 347.5,31.5C 347.5,29.8333 347.5,28.1667 347.5,26.5 Z"/></g>
<g><path style="opacity:1" fill="#f1f1f1" d="M 101.5,32.5 C 107.842,32.3338 114.175,32.5005 120.5,33C 123.28,35.7703 122.946,38.1036 119.5,40C 113.509,40.4995 107.509,40.6662 101.5,40.5C 101.5,37.8333 101.5,35.1667 101.5,32.5 Z"/></g>
<g><path style="opacity:1" fill="#757575" d="M 195.5,32.5 C 188.352,33.4916 181.019,33.825 173.5,33.5C 173.817,37.7016 173.483,41.7016 172.5,45.5C 172.5,41.1667 172.5,36.8333 172.5,32.5C 180.167,32.5 187.833,32.5 195.5,32.5 Z"/></g>
</svg>
