<?xml version="1.0" encoding="UTF-8"?>
<svg version="1.1" xmlns="http://www.w3.org/2000/svg" width="831" height="831">
<path d="M0 0 C274.23 0 548.46 0 831 0 C831 274.23 831 548.46 831 831 C556.77 831 282.54 831 0 831 C0 556.77 0 282.54 0 0 Z " fill="#000000" transform="translate(0,0)"/>
<path d="M0 0 C71.94 0 143.88 0 218 0 C218 152.46 218 304.92 218 462 C217.34 462 216.68 462 216 462 C216.01353516 463.33224609 216.01353516 463.33224609 216.02734375 464.69140625 C215.72978896 477.51213668 212.0784586 488.91238294 208 501 C207.34 501 206.68 501 206 501 C205.5359375 502.7325 205.5359375 502.7325 205.0625 504.5 C196.67240756 529.43504107 175.7070067 551.4384069 154.5 566.125 C153.81736084 566.5986499 153.13472168 567.0722998 152.43139648 567.56030273 C149.27354282 569.68819094 146.77008034 571.22265321 143 572 C143 572.66 143 573.32 143 574 C142.44054687 574.21914063 141.88109375 574.43828125 141.3046875 574.6640625 C137.42925103 576.19679139 133.57717251 577.73803093 129.78125 579.4609375 C110.19683019 588.30986113 90.43663379 590.1528321 69.125 590.25 C67.81781006 590.2593457 66.51062012 590.26869141 65.16381836 590.27832031 C57.23250849 590.25212276 49.77142838 589.56424529 42 588 C40.70707031 587.76539063 39.41414063 587.53078125 38.08203125 587.2890625 C32.03617285 586.06111038 26.53991206 584.66687663 20.98828125 581.95703125 C18.75867263 580.84039094 18.75867263 580.84039094 15.3125 579.6875 C-1.77644722 573.28335804 -15.90845817 562.55628288 -29 550 C-29.82886719 549.22269531 -30.65773437 548.44539062 -31.51171875 547.64453125 C-58.58123279 521.56991512 -72.50115857 485.0530827 -73.42221832 447.80909729 C-73.47709254 442.50711029 -73.44311556 437.20810036 -73.390625 431.90625 C-73.38471764 429.86556439 -73.38065316 427.82487262 -73.37841797 425.78417969 C-73.35775007 418.35602521 -73.30190873 410.92800186 -73.25 403.5 C-73.12625 378.5025 -73.12625 378.5025 -73 353 C-32.08 353 8.84 353 51 353 C51.0625 405.375 51.0625 405.375 51.02758789 421.86865234 C51.05079951 426.77830303 51.05079951 426.77830303 51.08323669 431.68789673 C51.09319714 433.86243628 51.08952841 436.03706579 51.07481384 438.21157837 C50.4043181 453.84918413 50.4043181 453.84918413 57.12205505 467.35684204 C62.42564023 471.99735518 66.49124206 474.81088842 73.765625 474.359375 C79.65117253 473.41274847 84.79862955 471.31807519 89 467 C93.676567 459.78181811 93.56985226 453.15523057 93.51898193 444.75061035 C93.52486242 443.30001791 93.53249219 441.84943169 93.541713 440.39885664 C93.56193233 436.4262706 93.55743016 432.4540425 93.54880548 428.48142862 C93.54385491 424.19246319 93.56195265 419.903587 93.57722473 415.61465454 C93.6005265 408.18827764 93.60928573 400.76199836 93.60811615 393.33558655 C93.60644624 382.59831815 93.62678848 371.86117982 93.65247145 361.12394613 C93.6935458 343.70275428 93.71686368 326.28158584 93.72900391 308.86035156 C93.74083376 291.93910472 93.76103314 275.01790194 93.79248047 258.09667969 C93.79441657 257.05333302 93.79635267 256.00998636 93.79834744 254.93502313 C93.80811208 249.700763 93.81804118 244.4665032 93.82805204 239.23224354 C93.91086521 195.82150269 93.96158336 152.4108073 94 109 C62.98 109 31.96 109 0 109 C0 73.03 0 37.06 0 0 Z " fill="#E4E4E4" transform="translate(185,130)"/>
<path d="M0 0 C76.89 0 153.78 0 233 0 C233 41.25 233 82.5 233 125 C196.7 125 160.4 125 123 125 C123 159.32 123 193.64 123 229 C147.09 229 171.18 229 196 229 C196 270.25 196 311.5 196 354 C172.24 354 148.48 354 124 354 C124 429.24 124 504.48 124 582 C83.08 582 42.16 582 0 582 C0 389.94 0 197.88 0 0 Z " fill="#E4E4E4" transform="translate(453,130)"/>
<path d="M0 0 C0.99 0.33 1.98 0.66 3 1 C3.33 1.99 3.66 2.98 4 4 C4.66 4.66 5.32 5.32 6 6 C1.97007218 5.44687265 -2.02022924 4.8441938 -6 4 C-5.38125 3.71125 -4.7625 3.4225 -4.125 3.125 C-1.86674235 2.06279958 -1.86674235 2.06279958 0 0 Z " fill="#C3C3C3" transform="translate(228,713)"/>
<path d="M0 0 C-1.29299694 2.88437779 -2.65941363 4.87219421 -5 7 C-5.33 6.01 -5.66 5.02 -6 4 C-2.25 0 -2.25 0 0 0 Z " fill="#D6D6D6" transform="translate(375,660)"/>
</svg>
