<svg width="553" height="568" viewBox="0 0 553 568" fill="none" xmlns="http://www.w3.org/2000/svg">
<path d="M140 568C114.4 568 90.9333 561.867 69.6 549.6C48.2667 536.8 31.2 520 18.4 499.2C6.13333 477.867 9.53674e-07 454.133 9.53674e-07 428V340H119.2V436C119.2 441.333 121.333 446.133 125.6 450.4C129.867 454.667 134.667 456.8 140 456.8C145.867 456.8 150.933 454.667 155.2 450.4C159.467 446.133 161.6 441.333 161.6 436V104H70.4V-3.8147e-05H280V428C280 454.133 273.6 477.867 260.8 499.2C248.533 520 231.733 536.8 210.4 549.6C189.6 561.867 166.133 568 140 568ZM328.125 560V-3.8147e-05H552.125V120H447.325V220H516.925V340H447.325V560H328.125Z" fill="black"/>
</svg>
