<svg width="2639" height="628" viewBox="0 0 2639 628" fill="none" xmlns="http://www.w3.org/2000/svg">
<path d="M140 628C114.4 628 90.9333 621.867 69.6 609.6C48.2667 596.8 31.2 580 18.4 559.2C6.13333 537.867 9.53674e-07 514.133 9.53674e-07 488V400H119.2V496C119.2 501.333 121.333 506.133 125.6 510.4C129.867 514.667 134.667 516.8 140 516.8C145.867 516.8 150.933 514.667 155.2 510.4C159.467 506.133 161.6 501.333 161.6 496V164H70.4V60H280V488C280 514.133 273.6 537.867 260.8 559.2C248.533 580 231.733 596.8 210.4 609.6C189.6 621.867 166.133 628 140 628ZM452.5 628C426.9 628 403.433 621.867 382.1 609.6C360.767 596.8 343.7 580 330.9 559.2C318.633 537.867 312.5 514.133 312.5 488V192C312.5 165.867 318.633 142.4 330.9 121.6C343.7 100.267 360.767 83.4666 382.1 71.2C403.433 58.4 426.9 52 452.5 52C478.1 52 501.567 58.4 522.9 71.2C544.233 83.4666 561.033 100.267 573.3 121.6C586.1 142.4 592.5 165.867 592.5 192V488C592.5 514.133 586.1 537.867 573.3 559.2C561.033 580 544.233 596.8 522.9 609.6C501.567 621.867 478.1 628 452.5 628ZM452.5 522.4C458.367 522.4 463.167 520.533 466.9 516.8C470.633 512.533 472.5 507.733 472.5 502.4V176.8C472.5 170.933 470.633 166.133 466.9 162.4C463.167 158.133 458.367 156 452.5 156C446.633 156 441.567 158.133 437.3 162.4C433.567 166.133 431.7 170.933 431.7 176.8V502.4C431.7 507.733 433.567 512.533 437.3 516.8C441.567 520.533 446.633 522.4 452.5 522.4ZM633.594 620V60H773.594C799.727 60 823.194 66.1333 843.994 78.4C865.327 90.1333 882.127 106.133 894.394 126.4C907.194 146.667 913.594 169.867 913.594 196C913.594 209.867 910.66 224.267 904.794 239.2C898.927 253.6 890.66 266.4 879.994 277.6C869.327 288.8 856.527 296.533 841.594 300.8V308.8C863.46 317.333 880.794 331.2 893.594 350.4C906.927 369.6 913.594 389.333 913.594 409.6V480C913.594 506.133 907.194 529.867 894.394 551.2C882.127 572 865.327 588.8 843.994 601.6C823.194 613.867 799.727 620 773.594 620H633.594ZM752.794 235.2H762.394C770.927 235.2 778.127 232 783.994 225.6C790.394 218.667 793.594 210.133 793.594 200C793.594 189.867 790.394 181.333 783.994 174.4C778.127 167.467 770.927 164 762.394 164H752.794V235.2ZM752.794 516.8H758.394C767.994 516.8 776.26 511.467 783.194 500.8C790.127 490.133 793.594 477.333 793.594 462.4V425.6C793.594 410.133 790.127 397.333 783.194 387.2C776.26 376.533 767.994 371.2 758.394 371.2H752.794V516.8ZM953.906 620V60H1177.91V180H1073.11V280H1142.71V400H1073.11V620H953.906ZM1225.78 36V0.799961H1346.58V36H1225.78ZM1225.78 620V60H1346.58V620H1225.78ZM1571.33 52C1596.4 52 1616.4 58.4 1631.33 71.2C1646.8 83.4666 1657.73 100.267 1664.13 121.6C1671.06 142.4 1674.53 165.867 1674.53 192V620H1555.33V184C1555.33 178.133 1553.2 173.333 1548.93 169.6C1545.2 165.333 1540.4 163.2 1534.53 163.2C1529.2 163.2 1524.4 165.333 1520.13 169.6C1516.4 173.333 1514.53 178.133 1514.53 184V620H1394.53V60H1489.73V88H1497.73C1502 78.9333 1511.06 70.6666 1524.93 63.2C1539.33 55.7333 1554.8 52 1571.33 52ZM1722.66 620V60H1862.66C1888.79 60 1912.26 66.4 1933.06 79.2C1954.39 91.4666 1971.19 108.267 1983.46 129.6C1996.26 150.4 2002.66 173.867 2002.66 200V480C2002.66 506.133 1996.26 529.867 1983.46 551.2C1971.19 572 1954.39 588.8 1933.06 601.6C1912.26 613.867 1888.79 620 1862.66 620H1722.66ZM1841.86 516.8H1864.26C1869.59 516.8 1873.86 514.933 1877.06 511.2C1880.79 507.467 1882.66 503.2 1882.66 498.4V182.4C1882.66 177.6 1880.79 173.333 1877.06 169.6C1873.86 165.867 1869.59 164 1864.26 164H1841.86V516.8ZM2178.28 628C2152.68 628 2129.21 621.867 2107.88 609.6C2086.55 596.8 2069.48 580 2056.68 559.2C2044.41 537.867 2038.28 514.133 2038.28 488V192C2038.28 165.867 2044.41 142.4 2056.68 121.6C2069.48 100.267 2086.55 83.4666 2107.88 71.2C2129.21 58.4 2152.68 52 2178.28 52C2203.88 52 2227.35 58.4 2248.68 71.2C2270.01 83.4666 2286.81 100.267 2299.08 121.6C2311.88 142.4 2318.28 165.867 2318.28 192V371.2H2157.48V496C2157.48 501.333 2159.35 506.133 2163.08 510.4C2167.35 514.667 2172.41 516.8 2178.28 516.8C2184.15 516.8 2188.95 514.667 2192.68 510.4C2196.41 506.133 2198.28 501.333 2198.28 496V412H2318.28V496.8C2317.21 521.333 2310.01 543.467 2296.68 563.2C2283.88 582.933 2267.08 598.667 2246.28 610.4C2226.01 622.133 2203.35 628 2178.28 628ZM2157.48 259.2H2198.28V176C2198.28 170.133 2196.41 165.333 2192.68 161.6C2188.95 157.867 2184.15 156 2178.28 156C2172.41 156 2167.35 157.867 2163.08 161.6C2159.35 165.333 2157.48 170.133 2157.48 176V259.2ZM2477.79 620H2358.59V60H2480.99C2510.33 60 2536.73 66.9333 2560.19 80.8C2584.19 94.1333 2603.13 112.267 2616.99 135.2C2631.39 158.133 2638.59 184.267 2638.59 213.6C2638.59 246.133 2629.79 272 2612.19 291.2C2595.13 310.4 2574.86 323.733 2551.39 331.2V343.2C2574.86 346.933 2593.26 357.867 2606.59 376C2620.46 393.6 2627.39 416.533 2627.39 444.8V620.8H2508.99V444.8C2508.99 438.933 2506.86 434.133 2502.59 430.4C2498.33 426.133 2493.26 424 2487.39 424H2477.79V620ZM2477.79 264H2492.99C2500.46 264 2506.59 261.6 2511.39 256.8C2516.73 251.467 2519.39 245.333 2519.39 238.4V192C2519.39 184.533 2516.73 178.4 2511.39 173.6C2506.59 168.267 2500.46 165.6 2492.99 165.6H2477.79V264Z" fill="black"/>
</svg>
